<svg width="199" height="366" viewBox="0 0 199 366" fill="none" xmlns="http://www.w3.org/2000/svg">
<path d="M99.5001 253.812L23.7144 164.553C8.48697 146.605 0.0991211 123.791 0.0991211 100.313C0.0991211 45.5015 44.691 0.912392 99.5001 0.912392C154.309 0.912392 198.904 45.5043 198.904 100.313C198.904 123.791 190.516 146.605 175.286 164.553L99.5001 253.812Z" fill="white"/>
<path d="M99.5001 253.812L23.7144 164.553C8.48697 146.605 0.0991211 123.791 0.0991211 100.313C0.0991211 45.5015 44.691 0.912392 99.5001 0.912392C154.309 0.912392 198.904 45.5043 198.904 100.313C198.904 123.791 190.516 146.605 175.286 164.553L99.5001 253.812ZM99.5001 9.1766C49.246 9.1766 8.36333 50.0593 8.36333 100.313C8.36333 121.835 16.0543 142.75 30.0144 159.205L99.5001 241.047L168.986 159.205C182.949 142.753 190.64 121.835 190.64 100.313C190.637 50.0593 149.754 9.1766 99.5001 9.1766Z" fill="#C0BEBE"/>
<circle cx="100" cy="341" r="25" fill="#D9D9D9"/>
<circle cx="100" cy="341" r="25" fill="white"/>
<circle cx="100" cy="341" r="21.5" stroke="#C0BEBE" stroke-width="7"/>
</svg>
