<svg style="
transform: rotate(90deg);" fill="none" height="20" viewBox="0 0 20 20" width="20" xmlns="http://www.w3.org/2000/svg"><g fill="#212121"><path fill="#16AAF8" d="m10 2c-1.10457 0-2 .89543-2 2v12c0 1.1046.89543 2 2 2 1.1046 0 2-.8954 2-2v-12c0-1.10457-.8954-2-2-2z"/><path fill="#16AAF8" d="m4 10c-1.10457 0-2 .8954-2 2v4c0 1.1046.89543 2 2 2s2-.8954 2-2v-4c0-1.1046-.89543-2-2-2z"/><path fill="#16AAF8" d="m16 6c-1.1046 0-2 .89543-2 2v8c0 1.1046.8954 2 2 2s2-.8954 2-2v-8c0-1.10457-.8954-2-2-2z"/></g></svg>